<?xml version="1.0" encoding="utf-8"?>
<!-- Generator: Adobe Illustrator 22.1.0, SVG Export Plug-In . SVG Version: 6.00 Build 0)  -->
<svg version="1.1" id="Layer_1" xmlns="http://www.w3.org/2000/svg" xmlns:xlink="http://www.w3.org/1999/xlink" x="0px" y="0px"
	 viewBox="326.9 71 306.1 306.5" style="enable-background:new 326.9 71 306.1 306.5;" xml:space="preserve">
<g>
	<path d="M452.4,122.4c12.1,12.1,12.1,33.6,0,45.7l-21.5,21.5c16.1,35,49.8,67.3,83.4,84.8l21.5-22.9c13.5-12.1,33.6-12.1,45.7,0
		l35,35c12.1,12.1,12.1,32.3,0,45.7l-35,33.6c-65.9,67.3-309.4-177.6-243.5-243.5l35-33.6c12.1-13.5,32.3-13.5,45.7,0L452.4,122.4z
		 M503.5,88.8c-10.8-2.7-6.7-20.2,5.4-17.5c60.5,16.1,107.6,63.2,123.8,123.8c2.7,12.1-13.5,16.1-17.5,5.4
		C601.8,146.6,558.7,103.6,503.5,88.8z M492.8,130.5c-10.8-2.7-6.7-20.2,5.4-17.5c45.7,12.1,80.7,48.4,92.8,94.2
		c4,10.8-13.5,16.1-17.5,4C564.1,172.2,533.1,141.3,492.8,130.5z M440.3,134.5l-35-33.6c-5.4-5.4-14.8-5.4-20.2,0l-33.6,33.6
		c-49.8,49.8,168.2,267.7,217.9,217.9l33.6-33.6c5.4-5.4,6.7-14.8,1.3-20.2l-35-33.6c-5.4-6.7-14.8-6.7-20.2,0l-26.9,25.6
		c-2.7,2.7-6.7,4-9.4,2.7c-41.7-18.8-82.1-59.2-100.9-100.9c-2.7-2.7-1.3-8.1,1.3-10.8l26.9-25.6
		C445.7,149.3,445.7,139.9,440.3,134.5z"/>
</g>
</svg>
